<svg id="Layer_1" data-name="Layer 1" xmlns="http://www.w3.org/2000/svg" viewBox="0 0 464.13 37.38"><defs><style>.cls-1{fill:#fff;}</style></defs><title>VN_logo_hvid_generisk</title><path class="cls-1" d="M70.06,77.84h6l8.2,19.55a21.58,21.58,0,0,1,.8,2c.25.73.48,1.44.7,2.11s.48,1.57.69,2.36c.22-.75.43-1.52.65-2.3s.4-1.35.67-2.12a21,21,0,0,1,.82-2.06l8.09-19.55h5.52L86.72,114.63H86Z" transform="translate(-70.06 -77.36)"/><path class="cls-1" d="M119.12,77.84h5.62v36.42h-5.62Z" transform="translate(-70.06 -77.36)"/><path class="cls-1" d="M154.24,114.74a17.69,17.69,0,0,1-4.66-.58,14,14,0,0,1-3.72-1.62,12.38,12.38,0,0,1-2.81-2.39,12.8,12.8,0,0,1-1.93-2.91l4.66-2.57a13.16,13.16,0,0,0,3.16,3.62,8.21,8.21,0,0,0,5.19,1.47,7.26,7.26,0,0,0,4.56-1.37,4.37,4.37,0,0,0,1.76-3.62,4.89,4.89,0,0,0-.4-2.06,5,5,0,0,0-1.18-1.61,9.69,9.69,0,0,0-1.9-1.37,25.68,25.68,0,0,0-2.62-1.29l-2.41-1.07a26.26,26.26,0,0,1-3.56-1.85,11.72,11.72,0,0,1-2.68-2.25A9.1,9.1,0,0,1,144,90.4a10.86,10.86,0,0,1-.59-3.71,9.06,9.06,0,0,1,.75-3.72A8.87,8.87,0,0,1,146.26,80a9.66,9.66,0,0,1,3.24-1.93,12.09,12.09,0,0,1,4.15-.69,12.38,12.38,0,0,1,6.13,1.4,11,11,0,0,1,4.15,4.38l-4.44,2.73a8,8,0,0,0-2.38-2.68,6.27,6.27,0,0,0-3.46-.85,4.87,4.87,0,0,0-3.45,1.17,4,4,0,0,0-1.26,3.05,4.25,4.25,0,0,0,1.23,3.21,13.59,13.59,0,0,0,4,2.35l2.35,1.07a35.39,35.39,0,0,1,4.1,2.11,13.26,13.26,0,0,1,3,2.43,9.24,9.24,0,0,1,1.82,3,11.32,11.32,0,0,1,.62,3.88,9.92,9.92,0,0,1-.89,4.28,9,9,0,0,1-2.46,3.15,11,11,0,0,1-3.75,1.95A15.93,15.93,0,0,1,154.24,114.74Z" transform="translate(-70.06 -77.36)"/><path class="cls-1" d="M183.85,77.84h5.63v36.42h-5.63Z" transform="translate(-70.06 -77.36)"/><path class="cls-1" d="M217.27,82.82H206.45v-5h27.26v5H222.89v31.44h-5.62Z" transform="translate(-70.06 -77.36)"/><path class="cls-1" d="M281.79,93a15.14,15.14,0,0,1-1.15-1.31c-.37-.49-.74-.92-1.1-1.32s-.78-.94-1.18-1.44c0,.57.09,1.16.17,1.77s.12,1.06.16,1.68.05,1.23.05,1.8v20.08h-5.25V77.47h.75l20.08,21.58c.36.39.72.83,1.1,1.31s.74.92,1.1,1.31.78,1,1.18,1.45c-.08-.61-.15-1.23-.22-1.87s-.11-1.11-.13-1.72,0-1.16,0-1.66v-20h5.25v36.79h-.7Z" transform="translate(-70.06 -77.36)"/><path class="cls-1" d="M329.9,98.24a10.73,10.73,0,0,1-4.1-.78,10.2,10.2,0,0,1-3.34-2.17,10.31,10.31,0,0,1-2.24-3.3,10.59,10.59,0,0,1,2.24-11.68,10.2,10.2,0,0,1,3.34-2.17,11.11,11.11,0,0,1,8.18,0,10.12,10.12,0,0,1,5.56,5.47,11,11,0,0,1,0,8.38A10.12,10.12,0,0,1,334,97.46,10.66,10.66,0,0,1,329.9,98.24Zm0-4a6.31,6.31,0,0,0,2.48-.49,6.07,6.07,0,0,0,1.94-1.36,6.25,6.25,0,0,0,1.26-2,7.3,7.3,0,0,0,0-5.1,6.25,6.25,0,0,0-1.26-2,6,6,0,0,0-1.94-1.35,6.4,6.4,0,0,0-5,0,5.87,5.87,0,0,0-2,1.35,6.28,6.28,0,0,0-1.27,2,7.3,7.3,0,0,0,0,5.1,6.28,6.28,0,0,0,1.27,2,5.9,5.9,0,0,0,2,1.36A6.34,6.34,0,0,0,329.89,94.24Z" transform="translate(-70.06 -77.36)"/><path class="cls-1" d="M382.47,114.26h-6.53l-6.54-9.59c-.5.07-1,.13-1.52.16s-1,.06-1.53.06h-3.42v9.37h-5.68V77.84h9.1a21.62,21.62,0,0,1,6.7,1A13.61,13.61,0,0,1,378,81.54a11.76,11.76,0,0,1,3,4.28,14.7,14.7,0,0,1,1,5.63,13,13,0,0,1-1.84,7.12,11.79,11.79,0,0,1-5.44,4.44ZM366.14,100q5.4,0,7.76-2.25a8.31,8.31,0,0,0,2.36-6.31,8.39,8.39,0,0,0-2.38-6.38q-2.38-2.25-7.74-2.25h-3.21V100Z" transform="translate(-70.06 -77.36)"/><path class="cls-1" d="M400.35,77.84h10a23,23,0,0,1,8,1.32,17.72,17.72,0,0,1,6.13,3.69,16.42,16.42,0,0,1,3.94,5.76,20.69,20.69,0,0,1,0,14.91,16.48,16.48,0,0,1-3.94,5.73,17.89,17.89,0,0,1-6.13,3.7,23.19,23.19,0,0,1-8,1.31h-10ZM410,109.28a17.66,17.66,0,0,0,6.16-1,11.62,11.62,0,0,0,4.37-2.73,11,11,0,0,0,2.57-4.2,17.53,17.53,0,0,0,0-10.66,11,11,0,0,0-2.57-4.2,11.62,11.62,0,0,0-4.37-2.73,17.9,17.9,0,0,0-6.16-1h-4v26.46Z" transform="translate(-70.06 -77.36)"/><path class="cls-1" d="M447.8,77.84h5.62v36.42H447.8Z" transform="translate(-70.06 -77.36)"/><path class="cls-1" d="M490.1,114.74a19.29,19.29,0,0,1-7.28-1.39,17.71,17.71,0,0,1-5.94-3.89,18.45,18.45,0,0,1-4-5.91,19.74,19.74,0,0,1,0-15,18.26,18.26,0,0,1,4-5.89,18.07,18.07,0,0,1,5.94-3.85,19.1,19.1,0,0,1,7.28-1.39q9.75,0,14.57,7.22l-4.34,3.11a11.34,11.34,0,0,0-4.1-3.83,12.46,12.46,0,0,0-6.13-1.42,12.92,12.92,0,0,0-5.19,1,12.19,12.19,0,0,0-4.07,2.84,13.09,13.09,0,0,0-2.68,4.31,15.56,15.56,0,0,0,0,10.76,13.09,13.09,0,0,0,2.68,4.31,12.41,12.41,0,0,0,4.07,2.87,12.76,12.76,0,0,0,5.19,1,12.21,12.21,0,0,0,6.4-1.55,13.81,13.81,0,0,0,4.37-4.18L505.2,107a17.23,17.23,0,0,1-6.18,5.7A18.39,18.39,0,0,1,490.1,114.74Z" transform="translate(-70.06 -77.36)"/><rect class="cls-1" x="449.02" y="0.05" width="4.7" height="16.27"/><rect class="cls-1" x="459.43" y="0.05" width="4.7" height="16.27"/></svg>